<svg id="Group_6787" data-name="Group 6787" xmlns="http://www.w3.org/2000/svg" width="24" height="24" viewBox="0 0 24 24">
  <g id="Rectangle_2457" data-name="Rectangle 2457" fill="#fff" stroke="#ebf2fc" stroke-width="1">
    <rect width="24" height="24" rx="4" stroke="none"/>
    <rect x="0.5" y="0.5" width="23" height="23" rx="3.5" fill="none"/>
  </g>
  <path id="Path_5351" data-name="Path 5351" d="M14,2H6A2,2,0,0,0,4.01,4L4,20a2,2,0,0,0,1.99,2H18a2.006,2.006,0,0,0,2-2V8Zm4,18H6V4h7V9h5ZM8,15.01l1.41,1.41L11,14.84V19h2V14.84l1.59,1.59L16,15.01,12.01,11Z" fill="#a9b2c1"/>
</svg>
