<svg id="Group_7063" data-name="Group 7063" xmlns="http://www.w3.org/2000/svg" width="24" height="24" viewBox="0 0 24 24">
  <g id="Component_70_88" data-name="Component 70 – 88">
    <g id="Rectangle_2457" data-name="Rectangle 2457" fill="#fff" stroke="#c4c4c4" stroke-width="1">
      <rect width="24" height="24" rx="4" stroke="none"/>
      <rect x="0.5" y="0.5" width="23" height="23" rx="3.5" fill="none"/>
    </g>
    <g id="upload_file_black_24dp">
      <path id="Path_5350" data-name="Path 5350" d="M0,0H24V24H0Z" fill="none"/>
      <g id="task_black_24dp">
        <g id="Group_4362" data-name="Group 4362">
          <path id="Path_5352" data-name="Path 5352" d="M0,0H24V24H0Z" fill="none"/>
        </g>
      </g>
    </g>
    <path id="delete_forever_FILL1_wght400_GRAD0_opsz48" d="M13.025,19.525,16,16.5l3,3.025,1.175-1.2L17.2,15.3l2.975-3.025L19,11.075,16,14.1l-2.975-3.025-1.2,1.2,3,3.025-3,3.025ZM10.525,24a1.538,1.538,0,0,1-1.5-1.5V8.25H8V6.75h4.7V6h6.6v.75H24v1.5H22.975V22.5a1.538,1.538,0,0,1-1.5,1.5Z" transform="translate(-4 -3)" fill="#c4c4c4"/>
  </g>
</svg>
