<svg id="Group_7064" data-name="Group 7064" xmlns="http://www.w3.org/2000/svg" width="24" height="24" viewBox="0 0 24 24">
  <g id="Component_70_61" data-name="Component 70 – 61">
    <g id="Rectangle_2457" data-name="Rectangle 2457" fill="#fff" stroke="#2e64db" stroke-width="1">
      <rect width="24" height="24" rx="4" stroke="none"/>
      <rect x="0.5" y="0.5" width="23" height="23" rx="3.5" fill="none"/>
    </g>
    <g id="upload_file_black_24dp">
      <path id="Path_5350" data-name="Path 5350" d="M0,0H24V24H0Z" fill="none"/>
      <g id="task_black_24dp">
        <g id="Group_4362" data-name="Group 4362">
          <path id="Path_5352" data-name="Path 5352" d="M0,0H24V24H0Z" fill="none"/>
        </g>
        <g id="Group_4363" data-name="Group 4363" transform="translate(4 2)">
          <path id="Path_5353" data-name="Path 5353" d="M14,2H6A2,2,0,0,0,4.01,4L4,20a2,2,0,0,0,1.99,2H18a2.006,2.006,0,0,0,2-2V8ZM10.94,18,7.4,14.46l1.41-1.41,2.12,2.12,4.24-4.24,1.41,1.41ZM13,9V3.5L18.5,9Z" transform="translate(-4 -2)" fill="#2e64db"/>
        </g>
      </g>
    </g>
    <rect id="Rectangle_2967" data-name="Rectangle 2967" width="10" height="9" transform="translate(7 10)" fill="#2e64db"/>
  </g>
  <g id="Group_6879" data-name="Group 6879" transform="translate(8.752 11.746)">
    <path id="Path_5617" data-name="Path 5617" d="M12249.789,14048.638l3.247-3.6,3.249,3.6" transform="translate(-12249.789 -14045.034)" fill="none" stroke="#fff" stroke-width="1.5"/>
    <path id="Path_5618" data-name="Path 5618" d="M12258.754,14045.035v7.553" transform="translate(-12255.506 -14045.035)" fill="none" stroke="#fff" stroke-width="2"/>
  </g>
</svg>
